<svg width="410" height="410" xmlns="http://www.w3.org/2fff/svg" version="1.1">
 <g>
  <title>Layer 1</title>
  <line y2="203.90151" y1="203.90151" stroke-width="2" id="svg_3" x2="393.9015" x1="13.9015" stroke="#fff" fill="none"/>
  <line stroke-width="2" id="svg_8" y2="103.90151" x2="393.9015" y1="103.90151" x1="13.9015" stroke="#fff" fill="none"/>
  <line stroke-width="2" id="svg_9" y2="303.90151" x2="393.9015" y1="303.90151" x1="13.9015" stroke="#fff" fill="none"/>
  <line y2="203.90151" y1="203.90151" stroke-width="2" id="svg_10" x2="393.9015" x1="13.9015" stroke="#fff" fill="none"/>
  <line stroke-width="2" id="svg_11" y2="103.90151" x2="393.9015" y1="103.90151" x1="13.9015" stroke="#fff" fill="none"/>
  <g transform="rotate(90, 203.902, 55.2353)" id="svg_25">
   <line y2="54.9015" y1="54.9015" stroke-width="2" id="svg_20" x2="245.23535" x1="162.56766" stroke="#fff" fill="none"/>
   <line stroke-width="2" id="svg_21" y2="-45.0985" x2="245.23535" y1="-45.0985" x1="162.56766" stroke="#fff" fill="none"/>
   <line stroke-width="2" id="svg_22" y2="154.9015" x2="245.23535" y1="154.9015" x1="162.56766" stroke="#fff" fill="none"/>
   <line y2="54.9015" y1="54.9015" stroke-width="2" id="svg_23" x2="245.23535" x1="162.56766" stroke="#fff" fill="none"/>
   <line stroke-width="2" id="svg_24" y2="-45.0985" x2="245.23535" y1="-45.0985" x1="162.56766" stroke="#fff" fill="none"/>
  </g>
  <g transform="rotate(90, 203.902, 153.235)" id="svg_32">
   <line y2="152.9015" y1="152.9015" stroke-width="2" id="svg_27" x2="245.23535" x1="162.56766" stroke="#fff" fill="none"/>
   <line stroke-width="2" id="svg_28" y2="52.9015" x2="245.23535" y1="52.9015" x1="162.56766" stroke="#fff" fill="none"/>
   <line stroke-width="2" id="svg_29" y2="252.9015" x2="245.23535" y1="252.9015" x1="162.56766" stroke="#fff" fill="none"/>
   <line y2="152.9015" y1="152.9015" stroke-width="2" id="svg_30" x2="245.23535" x1="162.56766" stroke="#fff" fill="none"/>
   <line stroke-width="2" id="svg_31" y2="52.9015" x2="245.23535" y1="52.9015" x1="162.56766" stroke="#fff" fill="none"/>
  </g>
  <g transform="rotate(90, 203.901, 253.235)" id="svg_38">
   <line y2="252.9015" y1="252.9015" stroke-width="2" id="svg_33" x2="245.23535" x1="162.56766" stroke="#fff" fill="none"/>
   <line stroke-width="2" id="svg_34" y2="152.9015" x2="245.23535" y1="152.9015" x1="162.56766" stroke="#fff" fill="none"/>
   <line stroke-width="2" id="svg_35" y2="352.9015" x2="245.23535" y1="352.9015" x1="162.56766" stroke="#fff" fill="none"/>
   <line y2="252.9015" y1="252.9015" stroke-width="2" id="svg_36" x2="245.23535" x1="162.56766" stroke="#fff" fill="none"/>
   <line stroke-width="2" id="svg_37" y2="152.9015" x2="245.23535" y1="152.9015" x1="162.56766" stroke="#fff" fill="none"/>
  </g>
  <g transform="rotate(90, 203.902, 353.235)" id="svg_44">
   <line y2="352.9015" y1="352.9015" stroke-width="2" id="svg_39" x2="245.23535" x1="162.56766" stroke="#fff" fill="none"/>
   <line stroke-width="2" id="svg_40" y2="252.9015" x2="245.23535" y1="252.9015" x1="162.56766" stroke="#fff" fill="none"/>
   <line stroke-width="2" id="svg_41" y2="452.9015" x2="245.23535" y1="452.9015" x1="162.56766" stroke="#fff" fill="none"/>
   <line y2="352.9015" y1="352.9015" stroke-width="2" id="svg_42" x2="245.23535" x1="162.56766" stroke="#fff" fill="none"/>
   <line stroke-width="2" id="svg_43" y2="252.9015" x2="245.23535" y1="252.9015" x1="162.56766" stroke="#fff" fill="none"/>
  </g>
  <rect rx="30" id="svg_45" height="400" width="400" y="4" x="4" stroke-width="4" stroke="#fff" fill="none"/>
 </g>

</svg>