<svg width="108" height="108" xmlns="http://www.w3.org/2000/svg" version="1.1">
 <g>
  <g transform="matrix(0.767696, 0.357983, -0.357983, 0.767696, 25.5988, -16.8018)" id="svg_6">
   <rect fill="#ffffff" stroke="#000" stroke-width="0" x="35.11889" y="29.66145" width="63" height="63" id="svg_4" rx="10"/>
   <g fill="black" stroke-width="0.25mm" stroke="#000" font-size="9pt" fill-rule="evenodd" stroke-linecap="round" id="svgGroup">
    <path id="svg_2" vector-effect="non-scaling-stroke" d="m62.10655,78.29393l-9.703,0l0,-34.265l10.758,0q6.562,0 10.831,2.709a14.199,14.199 0 0 1 2.2,1.72a14.49,14.49 0 0 1 4.092,7.328a21.888,21.888 0 0 1 0.549,5.047q0,8.461 -4.817,12.961a15.52,15.52 0 0 1 -6.076,3.436q-2.345,0.732 -5.169,0.96a33.03,33.03 0 0 1 -2.665,0.104zm1.43,-28.312l-3.867,0l0,22.312l3.117,0a13.989,13.989 0 0 0 4.282,-0.599q6.218,-1.999 6.218,-10.674q0,-9.495 -7.213,-10.823a14.02,14.02 0 0 0 -2.537,-0.216z"/>
   </g>
  </g>
 </g>

</svg>